<svg width="104" height="34" viewBox="0 0 104 34" fill="none" xmlns="http://www.w3.org/2000/svg">
<path fill-rule="evenodd" clip-rule="evenodd" d="M29.4607 14.8836C29.4938 14.7064 29.5289 14.547 29.5631 14.4093L31.9385 4.67302C32.6172 2.05391 34.1442 0.516602 36.9155 0.516602C39.0646 0.516602 40.7048 1.94003 40.7048 3.93284C40.7048 5.58402 40.0261 7.12132 38.4425 8.82944L32.536 15.3314C31.9953 17.9568 33.3006 18.7935 34.7098 18.7935C37.4511 18.7935 39.171 16.5816 39.8689 14.7002C39.8994 14.5988 39.9328 14.5016 39.9696 14.4093L42.4015 4.67302C43.0802 2.05391 44.6072 0.516602 47.3785 0.516602C49.5276 0.516602 51.1678 1.94003 51.1678 3.93284C51.1678 5.58402 50.4891 7.12132 48.9055 8.82944L43.0004 15.3301C42.4728 17.9565 43.9568 18.7935 45.908 18.7935C47.8202 18.7935 49.6854 17.7475 50.5536 15.0039L52.0161 9.11413H55.4095L53.7128 15.8897C53.2604 17.7116 53.7694 18.7935 55.1833 18.7935C56.88 18.7935 57.5587 18.281 58.2374 15.548L59.0292 12.2457C59.6513 9.62656 61.2349 8.88638 63.7799 8.88638H67.1168C69.4356 8.88638 71.1889 10.8222 70.6233 13.1567L68.4742 21.8681H65.0807L67.2299 13.2705C67.4561 12.4165 67.1168 11.961 66.2684 11.961H63.6668C62.9882 11.961 62.5923 12.3026 62.4226 12.9289L61.2914 17.6547C60.6693 20.16 58.8595 21.8681 55.9186 21.8681H55.1833C53.4448 21.8681 51.9867 21.0542 51.1429 19.566C50.0152 20.8083 48.3105 21.8681 45.6252 21.8681C42.9145 21.8681 41.2907 20.6535 40.4395 19.142C39.1534 20.5894 37.2944 21.8681 34.7098 21.8681C32.3016 21.8681 30.9188 21.0235 30.1547 19.8824C29.0995 21.0343 27.5991 21.8681 25.4345 21.8681C23.0591 21.8681 19.6091 20.6724 21.023 15.0356L22.4935 9.11413H25.8869L24.2468 15.3772C23.6247 17.7116 24.5296 18.7935 26.1697 18.7935C28.254 18.7935 29.1046 16.4012 29.4607 14.8836ZM44.2588 10.2033L46.417 7.2352C47.6613 5.52708 48.0572 5.01464 48.0572 4.50221C48.0572 3.98977 47.6047 3.59121 47.0957 3.59121C46.3605 3.59121 45.7949 4.04671 45.4556 5.35627L44.2588 10.2033ZM33.796 10.2033L35.954 7.2352C37.1983 5.52708 37.5942 5.01464 37.5942 4.50221C37.5942 3.98977 37.1417 3.59121 36.6327 3.59121C35.8975 3.59121 35.3319 4.04671 34.9926 5.35627L33.796 10.2033ZM15.9782 11.1631C18.0006 12.0669 18.478 13.5535 18.478 15.3203C18.478 18.9643 15.4805 22.0958 10.1641 22.0958H7.44942C2.35931 22.0958 -1.20376 19.4767 0.379826 13.2705L2.35931 5.24239C3.49045 1.19985 3.99946 0.687413 9.03301 0.687413H13.1617C16.7813 0.687413 19.5526 2.28166 19.5526 5.98258C19.5526 7.81584 18.6593 9.93522 15.9782 11.1631ZM11.6912 12.5873H7.78876L8.58055 9.51269H11.5781C14.6887 9.51269 16.046 8.43088 16.046 6.3242C16.046 4.38833 14.9149 3.76202 12.3699 3.76202H8.75023C6.31828 3.76202 6.14862 3.8759 5.58305 6.15339L3.66012 13.6691C2.86832 16.9145 4.28224 19.0212 8.07154 19.0212H10.1076C13.6141 19.0212 14.9715 17.3131 14.9715 15.3772C14.9715 13.4414 14.2928 12.5873 11.6912 12.5873ZM80.5422 21.4649C79.6628 21.8561 78.5543 22.1528 77.0142 22.1528C73.9036 22.1528 71.1889 19.3059 71.9807 15.2064C72.7159 11.5055 75.7134 8.88638 79.5593 8.88638C83.5748 8.88638 86.0633 11.961 85.1018 15.7188L81.6519 29.156C80.8035 32.2306 79.1634 33.4833 76.7314 33.4833C73.6774 33.4833 72.0938 31.2627 72.7159 28.6436C73.5168 25.6211 76.7518 24.0694 80.5422 21.4649ZM77.6929 19.0212C79.8421 19.0212 81.1429 17.8255 81.6519 15.3203C81.9912 13.3844 80.9732 12.0749 79.1068 12.0749C77.0142 12.0749 75.8265 13.4983 75.4872 15.3203C74.9782 17.4839 76.0528 19.0212 77.6929 19.0212ZM79.6843 25.0346C77.7302 27.0126 76.4967 28.1005 76.2224 28.9283C75.9397 29.7254 76.5052 30.3517 77.0708 30.3517C77.6929 30.3517 78.2019 29.8962 78.6544 28.5297L79.6843 25.0346ZM98.2207 10.3098H103.2V13.0428H99.6895C99.8564 13.8619 99.8632 14.7655 99.6935 15.7188C99.0714 19.5906 96.0173 22.1528 92.0018 22.1528C87.9862 22.1528 85.724 19.4198 86.5723 15.2064C87.3076 11.6194 90.4182 8.88638 94.3206 8.88638C95.954 8.88638 97.2808 9.41515 98.2207 10.3098ZM92.2846 19.0212C94.1509 19.0212 95.7345 18.2241 96.2435 15.3203C96.5829 13.3844 95.7345 12.0749 93.755 12.0749C91.719 12.0749 90.4182 13.4983 90.0223 15.3203C89.5698 17.4839 90.6444 19.0212 92.2846 19.0212ZM25.1517 7.12132C23.7943 7.12132 22.7197 6.03951 22.7197 4.67302C22.7197 3.30653 23.7943 2.22472 25.1517 2.22472C26.509 2.22472 27.5836 3.30653 27.5836 4.67302C27.5836 6.03951 26.509 7.12132 25.1517 7.12132ZM54.6743 7.12132C53.3169 7.12132 52.2424 6.03951 52.2424 4.67302C52.2424 3.30653 53.3169 2.22472 54.6743 2.22472C56.0317 2.22472 57.1063 3.30653 57.1063 4.67302C57.1063 6.03951 56.0317 7.12132 54.6743 7.12132Z" fill="#314EFF"/>
</svg>
